# xmcd
#
# Track frame offsets: 
#        150
#        19141
#        34438
#        50426
#        66040
#        79161
#        93193
#        105587
#        124993
#        138599
#        157239
#        175990
#        190732
#        209015
#        224837
#        242564
#        259007
#        272447
#        291434
#        307361
#        325661
#
# Disc length: 4548 seconds
#
# Revision: 0
# Processed by: cddbd v1.5.1PL0 Copyright (c) Steve Scherf et al.
# Submitted via: ExactAudioCopy v0.95a5
#
DISCID=4a11c215
DTITLE=Juice Newton - Juice Quiet Lies
DYEAR=2004
DGENRE=Country
TTITLE0=Angel Of The Morning
TTITLE1=Shot Full Of Love
TTITLE2=Ride 'Em Cowboy
TTITLE3=Queen Of Hearts
TTITLE4=River Of Love
TTITLE5=All I Have To Do Is Dream
TTITLE6=Headin' For A Heartache
TTITLE7=Country Comfort
TTITLE8=Texas Heartache
TTITLE9=The Sweetest Thing (I've Ever Known)
TTITLE10=Heart Of The Night
TTITLE11=Love's Been A Little Bit Hard On Me
TTITLE12=Break It To Me Gently
TTITLE13=Love Sail Away
TTITLE14=I'm Dancing As Fast As I Can
TTITLE15=I'm Gonna Be Strong
TTITLE16=Trail Of Tears
TTITLE17=Adios Mi Corazon
TTITLE18=Falling In Love
TTITLE19=Ever True
TTITLE20=It's A Heartache
EXTD=
EXTT0=
EXTT1=
EXTT2=
EXTT3=
EXTT4=
EXTT5=
EXTT6=
EXTT7=
EXTT8=
EXTT9=
EXTT10=
EXTT11=
EXTT12=
EXTT13=
EXTT14=
EXTT15=
EXTT16=
EXTT17=
EXTT18=
EXTT19=
EXTT20=
PLAYORDER=
